<?xml version="1.0" encoding="UTF-8"?>
<svg width="8px" height="8px" viewBox="0 0 8 8" version="1.1" xmlns="http://www.w3.org/2000/svg" xmlns:xlink="http://www.w3.org/1999/xlink">
    <!-- Generator: Sketch 50.2 (55047) - http://www.bohemiancoding.com/sketch -->
    <title>Blue Alert</title>
    <desc>Created with Sketch.</desc>
    <defs></defs>
    <g id="Blue-Alert" stroke="none" stroke-width="1" fill="none" fill-rule="evenodd">
        <circle id="Oval" fill="#007C9E" cx="4" cy="4" r="4"></circle>
        <path d="M4.44692672,5 L3.55974009,5 L3.42000008,1.5 L4.58666674,1.5 L4.44692672,5 Z M3.42000008,5.97222222 C3.42000008,5.80193866 3.47562935,5.66214716 3.58688956,5.55284352 C3.69814977,5.44353989 3.836963,5.38888889 4.00333341,5.38888889 C4.16970382,5.38888889 4.30851705,5.44353989 4.41977726,5.55284352 C4.53103747,5.66214716 4.58666674,5.80193866 4.58666674,5.97222222 C4.58666674,6.14250578 4.53103747,6.28229728 4.41977726,6.39160092 C4.30851705,6.50090456 4.16970382,6.55555556 4.00333341,6.55555556 C3.836963,6.55555556 3.69814977,6.50090456 3.58688956,6.39160092 C3.47562935,6.28229728 3.42000008,6.14250578 3.42000008,5.97222222 Z" id="!" fill="#00B1E2"></path>
    </g>
</svg>