<svg xmlns="http://www.w3.org/2000/svg" width="180" height="31" viewBox="0 0 180 31">
    <g fill="none" fill-rule="evenodd">
        <ellipse cx="140.488" cy="26.571" fill="#FF6B6C" rx="3.512" ry="3.543"/>
        <ellipse cx="24.585" cy="3.543" fill="#FFF" rx="3.512" ry="3.543"/>
        <ellipse cx="92.195" cy="3.543" fill="#FFF" rx="3.512" ry="3.543"/>
        <ellipse cx="151.024" cy="3.543" fill="#FFF" rx="3.512" ry="3.543"/>
        <path fill="#FFF" d="M18.405 28.288a.512.512 0 0 1-.23.63A14.433 14.433 0 0 1 11.254 31C4.482 31 0 26.755 0 20.38 0 14.003 4.482 9.742 11.254 9.742a14.43 14.43 0 0 1 6.871 2.098.512.512 0 0 1 .23.63l-2.174 4.47a.423.423 0 0 1-.276.291.436.436 0 0 1-.4-.064 6.688 6.688 0 0 0-3.592-1.098 4.27 4.27 0 0 0-3.262 1.161 4.087 4.087 0 0 0-1.27 3.165 4.087 4.087 0 0 0 1.27 3.164 4.27 4.27 0 0 0 3.262 1.161 6.688 6.688 0 0 0 3.592-1.097.436.436 0 0 1 .4-.065c.136.046.24.155.276.29l2.224 4.44zM28.397 9.743a.586.586 0 0 1 .579.522V29.56a.584.584 0 0 1-.58.554h-6.812a.58.58 0 0 1-.51-.554V10.265a.586.586 0 0 1 .578-.522h6.813-.068zM43.38 9.744a.507.507 0 0 1 .522.521v4.893a.505.505 0 0 1-.523.522h-.964a3.533 3.533 0 0 0-3.155 1.631V29.56a.571.571 0 0 1-.556.554h-6.538a.571.571 0 0 1-.556-.554V10.298a.572.572 0 0 1 .556-.522h4.2c.294.042.53.264.589.555l.556 1.63a6.316 6.316 0 0 1 4.904-2.217h.964zM64.03 28.288a.512.512 0 0 1-.23.63A14.432 14.432 0 0 1 56.913 31c-6.773 0-11.254-4.245-11.254-10.62 0-6.376 4.448-10.637 11.254-10.637 2.451.097 4.835.815 6.92 2.082a.512.512 0 0 1 .23.63l-2.207 4.47a.423.423 0 0 1-.276.29.436.436 0 0 1-.4-.064 6.688 6.688 0 0 0-3.592-1.097 4.27 4.27 0 0 0-3.262 1.16 4.087 4.087 0 0 0-1.27 3.165 4.087 4.087 0 0 0 1.27 3.165 4.27 4.27 0 0 0 3.262 1.161 6.688 6.688 0 0 0 3.592-1.097.436.436 0 0 1 .4-.065c.136.046.24.155.276.29l2.175 4.455zM84.62 9.743c.3.009.542.255.55.562v19.568a.572.572 0 0 1-.55.53h-4.092a.702.702 0 0 1-.583-.563l-.55-1.356a7.858 7.858 0 0 1-5.937 2.514c-4.854 0-7.604-3.11-7.604-8.27V10.304a.573.573 0 0 1 .55-.562h6.471c.3.009.542.255.55.562v11.496a1.98 1.98 0 0 0 .503 1.512c.37.407.894.634 1.439.622a2.894 2.894 0 0 0 2.232-1.208V10.305a.573.573 0 0 1 .55-.562h6.472zM96.011 9.743a.583.583 0 0 1 .574.522V29.56a.581.581 0 0 1-.574.554h-6.754a.581.581 0 0 1-.574-.554V10.265a.583.583 0 0 1 .574-.522h6.754zM111.853 9.641c.14-.009.276.042.378.142.102.1.16.238.16.383l-.396 3.606a.596.596 0 0 1-.538.557h-2.292v15.228a.564.564 0 0 1-.538.557h-6.324a.564.564 0 0 1-.538-.557V14.313h-2.04a.515.515 0 0 1-.505-.525v-3.59a.552.552 0 0 1 .141-.387.514.514 0 0 1 .365-.17h2.04V5.593a.578.578 0 0 1 .537-.525l6.324-.64a.511.511 0 0 1 .374.148c.1.098.16.234.164.377v4.688h2.688zM136.081 20.306a10.03 10.03 0 0 1-3.037 7.767 10.396 10.396 0 0 1-7.932 2.904c-6.568 0-10.952-4.246-10.952-10.59a10.03 10.03 0 0 1 3.051-7.728 10.396 10.396 0 0 1 7.901-2.895c6.568-.048 10.97 4.214 10.97 10.542zm-14.647 0a3.63 3.63 0 0 0 1.74 3.444c1.197.73 2.712.73 3.91 0a3.63 3.63 0 0 0 1.74-3.444 3.633 3.633 0 0 0-1.8-3.348 3.765 3.765 0 0 0-3.852.025 3.63 3.63 0 0 0-1.754 3.372l.016-.049zM154.84 9.743a.583.583 0 0 1 .575.522V29.56a.581.581 0 0 1-.574.554h-6.755a.581.581 0 0 1-.574-.554V10.265a.583.583 0 0 1 .574-.522h6.755zM179.984 20.307a10.026 10.026 0 0 1-3.035 7.76 10.408 10.408 0 0 1-7.926 2.911c-6.573 0-10.96-4.246-10.96-10.59a10.027 10.027 0 0 1 3.053-7.729 10.408 10.408 0 0 1 7.907-2.895c6.573-.048 10.96 4.214 10.96 10.543zm-14.658 0a3.629 3.629 0 0 0 1.74 3.444 3.77 3.77 0 0 0 3.914 0 3.629 3.629 0 0 0 1.74-3.444 3.628 3.628 0 0 0-1.734-3.495 3.77 3.77 0 0 0-3.957.026 3.626 3.626 0 0 0-1.687 3.517l-.016-.048z"/>
    </g>
</svg>
