<svg xmlns="http://www.w3.org/2000/svg" width="30" height="30" viewBox="0 0 30 30">
    <defs>
        <filter id="a" width="163.6%" height="163.6%" x="-31.8%" y="-22.7%" filterUnits="objectBoundingBox">
            <feOffset dy="2" in="SourceAlpha" result="shadowOffsetOuter1"/>
            <feGaussianBlur in="shadowOffsetOuter1" result="shadowBlurOuter1" stdDeviation="2"/>
            <feColorMatrix in="shadowBlurOuter1" result="shadowMatrixOuter1" values="0 0 0 0 0.878431373 0 0 0 0 0.878431373 0 0 0 0 0.878431373 0 0 0 1 0"/>
            <feMerge>
                <feMergeNode in="shadowMatrixOuter1"/>
                <feMergeNode in="SourceGraphic"/>
            </feMerge>
        </filter>
    </defs>
    <g fill="none" fill-rule="evenodd" filter="url(#a)" transform="translate(4 2)">
        <circle cx="11" cy="11" r="11" fill="#9B9EA0"/>
        <path fill="#FFF" d="M10.984 13.456c1.275.002 2.242-.946 2.244-2.201.003-1.28-.94-2.25-2.191-2.254-1.303-.004-2.263.938-2.264 2.22 0 1.273.95 2.234 2.21 2.235M6.5 6.908c.478.191.894.343 1.298.524.24.107.415.038.65-.052.734-.282.92-.82.967-1.543.053-.838.106-.835.98-.835.548 0 1.096.006 1.643-.002.319-.005.477.122.503.453.032.402.088.803.168 1.197.027.133.13.29.245.362.897.558.9.553 1.902.156.782-.31.783-.31 1.199.402.282.484.555.974.844 1.454.155.257.132.456-.116.64-.325.24-.659.474-.947.754-.126.12-.162.345-.209.53-.023.094.058.219.027.306-.184.52.109.796.49 1.051.237.16.452.352.68.527.199.154.225.33.099.547-.368.63-.733 1.263-1.092 1.898-.136.242-.32.279-.56.18-.373-.153-.742-.322-1.127-.44-.16-.048-.366-.01-.534.044-.759.247-1.044.81-1.013 1.575.005.127-.054.255-.06.384-.018.31-.181.438-.481.437-.705-.004-1.409-.005-2.113 0-.3.002-.452-.124-.48-.435-.035-.4-.086-.802-.168-1.196-.03-.144-.17-.266-.26-.397-.007-.01-.026-.01-.035-.018-.64-.59-1.288-.426-1.984-.078-.628.315-.647.277-.997-.328-.3-.519-.592-1.044-.904-1.555-.168-.274-.144-.477.12-.669.294-.214.576-.447.863-.673.062-.048.127-.093.18-.15.195-.207.12-1.368-.102-1.548a62.55 62.55 0 0 0-.985-.773c-.192-.15-.252-.319-.122-.543.373-.642.735-1.291 1.117-1.928.07-.115.218-.181.314-.258"/>
    </g>
</svg>
