<svg xmlns="http://www.w3.org/2000/svg" width="30" height="30" viewBox="0 0 30 30">
    <defs>
        <filter id="a" width="163.6%" height="163.6%" x="-31.8%" y="-22.7%" filterUnits="objectBoundingBox">
            <feOffset dy="2" in="SourceAlpha" result="shadowOffsetOuter1"/>
            <feGaussianBlur in="shadowOffsetOuter1" result="shadowBlurOuter1" stdDeviation="2"/>
            <feColorMatrix in="shadowBlurOuter1" result="shadowMatrixOuter1" values="0 0 0 0 0.878431373 0 0 0 0 0.878431373 0 0 0 0 0.878431373 0 0 0 1 0"/>
            <feMerge>
                <feMergeNode in="shadowMatrixOuter1"/>
                <feMergeNode in="SourceGraphic"/>
            </feMerge>
        </filter>
    </defs>
    <g fill="none" fill-rule="evenodd" filter="url(#a)" transform="translate(4 2)">
        <circle cx="11" cy="11" r="11" fill="#9B9EA0"/>
        <g fill="#FFF" fill-rule="nonzero">
            <path d="M14.006 12.805h-.633l-.224-.216a5.18 5.18 0 0 0 1.257-3.386 5.203 5.203 0 1 0-5.203 5.203 5.18 5.18 0 0 0 3.386-1.257l.216.224v.633L16.807 18 18 16.807l-3.994-4.002zm-4.803 0a3.597 3.597 0 0 1-3.602-3.602 3.597 3.597 0 0 1 3.602-3.602 3.597 3.597 0 0 1 3.602 3.602 3.597 3.597 0 0 1-3.602 3.602z"/>
            <path d="M11 9.4H9.4V11h-.8V9.4H7v-.8h1.6V7h.8v1.6H11z"/>
        </g>
    </g>
</svg>
