<svg xmlns="http://www.w3.org/2000/svg" width="30" height="30" viewBox="0 0 30 30">
    <defs>
        <filter id="a" width="163.6%" height="163.6%" x="-31.8%" y="-22.7%" filterUnits="objectBoundingBox">
            <feOffset dy="2" in="SourceAlpha" result="shadowOffsetOuter1"/>
            <feGaussianBlur in="shadowOffsetOuter1" result="shadowBlurOuter1" stdDeviation="2"/>
            <feColorMatrix in="shadowBlurOuter1" result="shadowMatrixOuter1" values="0 0 0 0 0.878431373 0 0 0 0 0.878431373 0 0 0 0 0.878431373 0 0 0 1 0"/>
            <feMerge>
                <feMergeNode in="shadowMatrixOuter1"/>
                <feMergeNode in="SourceGraphic"/>
            </feMerge>
        </filter>
    </defs>
    <g fill="none" fill-rule="evenodd" filter="url(#a)" transform="translate(4 2)">
        <circle cx="11" cy="11" r="11" fill="#9B9EA0"/>
        <path fill="#FFF" fill-rule="nonzero" d="M13.722 12.556h-.614l-.218-.21a5.033 5.033 0 0 0 1.221-3.29 5.055 5.055 0 1 0-5.055 5.055 5.033 5.033 0 0 0 3.29-1.221l.21.218v.614l3.888 3.881 1.16-1.159-3.882-3.888zm-4.666 0a3.495 3.495 0 0 1-3.5-3.5c0-1.937 1.563-3.5 3.5-3.5 1.936 0 3.5 1.563 3.5 3.5 0 1.936-1.564 3.5-3.5 3.5zM7.11 8.666H11v.778H7.111v-.777z"/>
    </g>
</svg>
